<?xml version="1.0" encoding="UTF-8" standalone="no"?>
<svg
   xmlns:dc="http://purl.org/dc/elements/1.1/"
   xmlns:cc="http://creativecommons.org/ns#"
   xmlns:rdf="http://www.w3.org/1999/02/22-rdf-syntax-ns#"
   xmlns:svg="http://www.w3.org/2000/svg"
   xmlns="http://www.w3.org/2000/svg"
   xmlns:sodipodi="http://sodipodi.sourceforge.net/DTD/sodipodi-0.dtd"
   xmlns:inkscape="http://www.inkscape.org/namespaces/inkscape"
   viewBox="0 0 295.87204 34.66238"
   height="34.66238"
   width="295.87204"
   xml:space="preserve"
   id="svg2"
   version="1.1"
   inkscape:version="0.91 r13725"
   sodipodi:docname="logo2016_en_2.svg"><sodipodi:namedview
     pagecolor="#ffffff"
     bordercolor="#666666"
     borderopacity="1"
     objecttolerance="10"
     gridtolerance="10"
     guidetolerance="10"
     inkscape:pageopacity="0"
     inkscape:pageshadow="2"
     inkscape:window-width="1680"
     inkscape:window-height="988"
     id="namedview4280"
     showgrid="false"
     fit-margin-top="0"
     fit-margin-left="0"
     fit-margin-right="0"
     fit-margin-bottom="0"
     inkscape:zoom="3.8321712"
     inkscape:cx="155.06915"
     inkscape:cy="22.645113"
     inkscape:window-x="-8"
     inkscape:window-y="-8"
     inkscape:window-maximized="1"
     inkscape:current-layer="svg2" /><metadata
     id="metadata8"><rdf:RDF><cc:Work
         rdf:about=""><dc:format>image/svg+xml</dc:format><dc:type
           rdf:resource="http://purl.org/dc/dcmitype/StillImage" /><dc:title></dc:title></cc:Work></rdf:RDF></metadata><defs
     id="defs6" /><g
     transform="matrix(1.3333333,0,0,-1.3333333,-37.859455,51.645939)"
     id="g10"><g
       transform="scale(0.1,0.1)"
       id="g12"><path
         id="path14"
         style="fill:#ffffff;fill-opacity:1;fill-rule:nonzero;stroke:none"
         d="m 0,0 3401.57,0 0,496.066 -3401.57,0 z"
         inkscape:connector-curvature="0" /><path
         id="path16"
         style="fill:#ed1443;fill-opacity:1;fill-rule:nonzero;stroke:none"
         d="m 1055.46,260.949 0,6.199 c 0,1.954 -1.62,3.547 -3.55,3.547 l -45.65,0 c -3.54,0 -7.088,-0.703 -9.209,-1.066 2.121,1.594 4.609,4.289 6.569,7.832 l 47.93,83.078 c 1.06,1.777 1.94,3.887 1.94,5.859 l 0,6.383 c 0,2.133 -1.58,3.547 -3.56,3.547 l -59.977,0 c -2.129,0 -3.914,-1.414 -3.914,-3.547 l 0,-5.867 c 0,-1.953 1.785,-3.547 3.914,-3.547 l 40.807,0 c 4.08,0 7.66,0.356 10.31,1.059 -2.13,-1.758 -4.81,-4.414 -6.56,-7.434 l -48.471,-83.808 c -0.707,-1.239 -1.59,-3.008 -1.59,-4.969 l 0,-7.266 c 0,-1.965 1.59,-3.554 3.528,-3.554 l 63.933,0 c 1.93,0 3.55,1.589 3.55,3.554"
         inkscape:connector-curvature="0" /><path
         id="path18"
         style="fill:#ed1443;fill-opacity:1;fill-rule:nonzero;stroke:none"
         d="m 1118.61,308.137 -34.27,0 c 2.1,20.879 11.88,24.199 17.75,24.199 11.72,0 16.17,-12.453 16.52,-24.199 m 14.55,-7.715 c 0,33.34 -15.08,43.406 -31.43,43.406 -18.98,0 -32.15,-16.426 -32.15,-43.035 0,-28.848 13.31,-44.301 37.83,-44.301 10.14,0 15.81,1.789 20.58,3.918 2.16,0.899 3.03,2.664 2.34,4.61 l -1.62,4.433 c -0.72,1.77 -2.13,3.02 -4.63,2.297 -5.27,-1.574 -10.1,-2.844 -16.85,-2.844 -15.98,0 -22.17,9.785 -22.89,27.727 l 45.28,0 c 1.94,0 3.54,1.805 3.54,3.789"
         inkscape:connector-curvature="0" /><path
         id="path20"
         style="fill:#ed1443;fill-opacity:1;fill-rule:nonzero;stroke:none"
         d="m 1219.02,260.949 0,60.703 c 0,13.321 -8.49,22.188 -21.81,22.188 -9.23,0 -16.87,-3.547 -24.48,-12.402 l -1.97,8.691 c -0.53,2.129 -1.61,2.832 -4.09,2.832 l -3.9,0 c -1.96,0 -3.71,-1.418 -3.71,-3.555 l 0,-78.457 c 0,-1.965 1.75,-3.554 3.71,-3.554 l 6.76,0 c 1.94,0 3.72,1.589 3.72,3.554 l 0,48.809 c 0,12.246 9.05,22.039 20.57,22.039 7.84,0 11.01,-3.926 11.01,-13.32 l 0,-57.528 c 0,-1.965 1.79,-3.554 3.74,-3.554 l 6.76,0 c 1.94,0 3.69,1.589 3.69,3.554"
         inkscape:connector-curvature="0" /><path
         id="path22"
         style="fill:#ed1443;fill-opacity:1;fill-rule:nonzero;stroke:none"
         d="m 1282.57,262.363 -0.71,3.723 c -0.34,1.961 -1.98,3.191 -3.72,2.82 -1.78,-0.332 -4.08,-0.691 -5.53,-0.691 -4.42,0 -6.36,2.137 -6.36,6.922 l 0,56.32 9.93,0 c 1.96,0 3.55,1.777 3.55,3.758 l 0,3.957 c 0,1.973 -1.59,3.769 -3.55,3.769 l -9.93,0 0,22.207 c 0,2.813 -2.5,2.645 -4.65,1.922 l -6.55,-2.312 c -1.6,-0.539 -2.66,-1.926 -2.66,-3.899 l 0,-17.918 -9.77,0 c -2.12,0 -3.56,-1.796 -3.56,-3.769 l 0,-3.957 c 0,-1.981 1.44,-3.758 3.56,-3.758 l 9.77,0 0,-58.098 c 0,-11.347 5.67,-16.867 17.74,-16.867 3.74,0 7.29,0.539 9.75,1.262 2.5,0.703 3.06,2.5 2.69,4.609"
         inkscape:connector-curvature="0" /><path
         id="path24"
         style="fill:#ed1443;fill-opacity:1;fill-rule:nonzero;stroke:none"
         d="m 1345.96,337.629 c 0.86,3.562 -3.56,6.211 -9.24,6.211 -8.18,0 -14.94,-4.778 -19.9,-13.137 l -2.51,9.59 c -0.54,1.777 -1.91,2.668 -3.68,2.668 l -4.1,0 c -1.94,0 -3.74,-1.418 -3.74,-3.555 l 0,-78.457 c 0,-1.965 1.8,-3.554 3.74,-3.554 l 6.72,0 c 1.97,0 3.75,1.589 3.75,3.554 l 0,46.336 c 0,15.43 6.94,21.836 12.08,21.836 3.37,0 7.45,-1.25 9.93,-1.98 3.03,-0.871 4.61,0.73 5.14,3.203 l 1.81,7.285"
         inkscape:connector-curvature="0" /><path
         id="path26"
         style="fill:#ed1443;fill-opacity:1;fill-rule:nonzero;stroke:none"
         d="m 1420.48,260.949 0,78.457 c 0,2.137 -1.79,3.555 -3.7,3.555 l -6.77,0 c -1.96,0 -3.73,-1.418 -3.73,-3.555 l 0,-43.144 c 0,-18.801 -8.87,-27.895 -21.49,-27.895 -6.74,0 -10.8,3.742 -10.8,12.473 l 0,58.566 c 0,2.137 -1.78,3.555 -3.76,3.555 l -6.72,0 c -1.96,0 -3.71,-1.418 -3.71,-3.555 l 0,-60.363 c 0,-14.91 8.14,-22.551 21.1,-22.551 15.63,0 21.48,8.363 25.9,13.137 l 2.32,-9.219 c 0.52,-1.953 1.77,-3.015 3.58,-3.015 l 4.08,0 c 1.91,0 3.7,1.589 3.7,3.554"
         inkscape:connector-curvature="0" /><path
         id="path28"
         style="fill:#ed1443;fill-opacity:1;fill-rule:nonzero;stroke:none"
         d="m 1549.55,260.949 0,64.617 c 0,15.079 -11.53,18.274 -19.38,18.274 -9.21,0 -16.84,-4.434 -24.12,-13.137 -1.61,8.164 -8.87,13.137 -18.29,13.137 -9.42,0 -17.58,-6.399 -22.54,-12.227 l -1.97,8.516 c -0.54,2.129 -1.6,2.832 -4.07,2.832 l -3.9,0 c -1.96,0 -3.74,-1.418 -3.74,-3.555 l 0,-78.457 c 0,-1.965 1.78,-3.554 3.74,-3.554 l 6.73,0 c 1.98,0 3.73,1.589 3.73,3.554 l 0,48.973 c 0,12.277 8.87,21.516 19.36,21.516 5.51,0 8.33,-2.844 8.33,-8.372 l 0,-62.117 c 0,-1.965 1.8,-3.554 3.75,-3.554 l 6.73,0 c 1.95,0 3.72,1.589 3.72,3.554 l 0,48.973 c 0,12.277 9.07,21.516 19.54,21.516 5.5,0 8.17,-2.844 8.17,-8.372 l 0,-62.117 c 0,-1.965 1.78,-3.554 3.75,-3.554 l 6.74,0 c 1.95,0 3.72,1.589 3.72,3.554"
         inkscape:connector-curvature="0" /><path
         id="path30"
         style="fill:#ed1443;fill-opacity:1;fill-rule:nonzero;stroke:none"
         d="m 359.859,257.043 -6.91,0 c -2.008,0 -3.801,1.629 -3.801,3.641 l 0,54.211 -45.878,0 0,-54.211 c 0,-2.012 -1.809,-3.641 -3.801,-3.641 l -6.871,0 c -1.989,0 -3.84,1.629 -3.84,3.641 l 0,114.211 c 0,2.156 1.851,3.621 3.84,3.621 l 6.871,0 c 1.992,0 3.801,-1.465 3.801,-3.621 l 0,-46.946 45.878,0 0,46.946 c 0,2.156 1.793,3.621 3.801,3.621 l 6.91,0 c 1.981,0 3.805,-1.465 3.805,-3.621 l 0,-114.211 c 0,-2.012 -1.824,-3.641 -3.805,-3.641"
         inkscape:connector-curvature="0" /><path
         id="path32"
         style="fill:#ed1443;fill-opacity:1;fill-rule:nonzero;stroke:none"
         d="m 422.758,333.742 c -5.977,0 -15.957,-3.469 -18.137,-25.031 l 35.016,0 c -0.387,12.156 -4.914,25.031 -16.879,25.031 m 28.101,-36.64 -46.238,0 c 0.75,-18.301 7.067,-28.282 23.41,-28.282 6.871,0 11.789,1.289 17.199,2.918 2.54,0.711 3.989,-0.554 4.723,-2.371 l 1.621,-4.523 c 0.715,-1.992 -0.183,-3.809 -2.355,-4.707 -4.887,-2.176 -10.699,-4.012 -21.012,-4.012 -25.039,0 -38.637,15.789 -38.637,45.156 0,27.383 13.418,44.063 32.832,44.063 16.672,0 32.09,-10.156 32.09,-44.406 0,-2.012 -1.633,-3.836 -3.633,-3.836"
         inkscape:connector-curvature="0" /><path
         id="path34"
         style="fill:#ed1443;fill-opacity:1;fill-rule:nonzero;stroke:none"
         d="m 501.242,258.145 c -3.082,-1.102 -6.512,-2.02 -10.691,-2.02 -11.418,0 -16.504,5.457 -16.504,15.406 l 0,110.258 c 0,2.176 1.824,3.633 3.785,3.633 l 6.566,0 c 1.965,0 3.79,-1.457 3.79,-3.633 l 0,-106.601 c 0,-4.532 0.523,-7.083 4.523,-7.083 1.648,0 3.637,0.528 5.801,1.075 2.187,0.558 3.457,0 3.996,-2.325 l 1.07,-4.91 c 0.391,-2.004 -0.359,-3.078 -2.336,-3.8"
         inkscape:connector-curvature="0" /><path
         id="path36"
         style="fill:#ed1443;fill-opacity:1;fill-rule:nonzero;stroke:none"
         d="m 616.203,257.043 -6.891,0 c -2.011,0 -3.812,1.629 -3.812,3.641 l 0,63.429 c 0,5.645 -2.711,8.543 -8.363,8.543 -10.688,0 -19.907,-9.441 -19.907,-21.941 l 0,-50.031 c 0,-2.012 -1.82,-3.641 -3.843,-3.641 l -6.879,0 c -1.988,0 -3.809,1.629 -3.809,3.641 l 0,63.429 c 0,5.645 -2.91,8.543 -8.527,8.543 -10.672,0 -19.734,-9.441 -19.734,-21.941 l 0,-50.031 c 0,-2.012 -1.84,-3.641 -3.829,-3.641 l -6.879,0 c -1.992,0 -3.828,1.629 -3.828,3.641 l 0,80.109 c 0,2.195 1.836,3.652 3.828,3.652 l 3.989,0 c 2.519,0 3.597,-0.746 4.152,-2.914 l 2.012,-8.707 c 5.078,5.977 13.406,12.52 23.015,12.52 9.61,0 17.032,-5.078 18.704,-13.41 7.398,8.859 15.207,13.41 24.617,13.41 7.969,0 19.781,-3.274 19.781,-18.684 l 0,-65.976 c 0,-2.012 -1.812,-3.641 -3.797,-3.641"
         inkscape:connector-curvature="0" /><path
         id="path38"
         style="fill:#ed1443;fill-opacity:1;fill-rule:nonzero;stroke:none"
         d="m 705.754,257.043 -6.504,0 c -2.008,0 -3.84,1.629 -3.84,3.641 l 0,58.722 c 0,9.625 -3.617,13.621 -11.57,13.621 -11.797,0 -21.41,-10 -21.41,-22.5 l 0,-49.843 c 0,-2.012 -1.84,-3.641 -3.813,-3.641 l -6.547,0 c -1.98,0 -3.808,1.629 -3.808,3.641 l 0,121.105 c 0,2.176 1.828,3.633 3.808,3.633 l 6.547,0 c 1.973,0 3.813,-1.457 3.813,-3.633 l 0,-48.762 c 7.8,8.692 15.578,12.317 24.84,12.317 13.589,0 22.273,-9.082 22.273,-22.668 l 0,-61.992 c 0,-2.012 -1.813,-3.641 -3.789,-3.641"
         inkscape:connector-curvature="0" /><path
         id="path40"
         style="fill:#ed1443;fill-opacity:1;fill-rule:nonzero;stroke:none"
         d="m 765.762,333.203 c -12.492,0 -19.414,-10.703 -19.414,-32.449 0,-22.297 6.922,-32.649 19.414,-32.649 12.531,0 19.41,10.352 19.41,32.649 0,21.746 -6.879,32.449 -19.41,32.449 m 0.355,-77.078 c -21.047,0 -34.797,16.687 -34.797,44.629 0,27.742 13.75,44.59 34.797,44.59 21.031,0 34.465,-16.848 34.465,-44.59 0,-27.942 -13.434,-44.629 -34.465,-44.629"
         inkscape:connector-curvature="0" /><path
         id="path42"
         style="fill:#ed1443;fill-opacity:1;fill-rule:nonzero;stroke:none"
         d="m 849.543,258.145 c -3.082,-1.102 -6.566,-2.02 -10.723,-2.02 -11.406,0 -16.48,5.457 -16.48,15.406 l 0,110.258 c 0,2.176 1.801,3.633 3.789,3.633 l 6.551,0 c 1.968,0 3.789,-1.457 3.789,-3.633 l 0,-106.601 c 0,-4.532 0.543,-7.083 4.531,-7.083 1.621,0 3.637,0.528 5.801,1.075 2.179,0.558 3.437,0 4,-2.325 l 1.07,-4.91 c 0.379,-2.004 -0.344,-3.078 -2.328,-3.8"
         inkscape:connector-curvature="0" /><path
         id="path44"
         style="fill:#ed1443;fill-opacity:1;fill-rule:nonzero;stroke:none"
         d="m 898.102,257.402 c -2.532,-0.722 -6.145,-1.277 -9.942,-1.277 -12.34,0 -18.152,5.645 -18.152,17.234 l 0,59.465 -9.949,0 c -2.196,0 -3.657,1.824 -3.657,3.809 l 0,3.984 c 0,2.012 1.461,3.828 3.657,3.828 l 9.949,0 0,18.309 c 0,1.984 1.07,3.437 2.722,3.976 l 6.7,2.352 c 2.191,0.742 4.703,0.91 4.703,-1.992 l 0,-22.645 10.168,0 c 2.008,0 3.609,-1.816 3.609,-3.828 l 0,-3.984 c 0,-1.985 -1.601,-3.809 -3.609,-3.809 l -10.168,0 0,-57.636 c 0,-4.907 2.019,-7.083 6.527,-7.083 1.469,0 3.809,0.364 5.649,0.715 1.793,0.36 3.453,-0.91 3.812,-2.882 l 0.711,-3.821 c 0.348,-2.176 -0.172,-3.972 -2.73,-4.715"
         inkscape:connector-curvature="0" /><path
         id="path46"
         style="fill:#ed1443;fill-opacity:1;fill-rule:nonzero;stroke:none"
         d="m 962.48,257.043 -47.859,0 c -2.551,0 -4.012,2.176 -4.012,5.437 l 0,4.172 c 0,1.621 0.731,3.086 1.461,4.344 l 35,56.379 c 1.45,2.383 2.7,4.395 3.989,5.652 -1.641,-0.371 -4.188,-0.371 -5.258,-0.371 l -29,0 c -2.18,0 -3.641,1.817 -3.641,3.789 l 0,4.172 c 0,2.012 1.461,3.828 3.641,3.828 l 44.758,0 c 2,0 3.621,-1.816 3.621,-3.828 l 0,-5.605 c 0,-1.809 -0.34,-2.903 -1.278,-4.356 L 930.57,276.621 c -1.629,-2.703 -3.812,-5.965 -5.273,-7.801 1.832,0.184 4.742,0.36 6.723,0.36 l 30.46,0 c 2,0 3.61,-1.27 3.61,-3.242 l 0,-5.086 c 0,-1.985 -1.61,-3.809 -3.61,-3.809"
         inkscape:connector-curvature="0" /><path
         id="path48"
         style="fill:#ed1443;fill-opacity:1;fill-rule:nonzero;stroke:none"
         d="m 1730.34,260.949 0,64.617 c 0,15.079 -11.54,18.274 -19.35,18.274 -9.23,0 -16.86,-4.434 -24.14,-13.137 -1.6,8.164 -8.87,13.137 -18.26,13.137 -9.46,0 -17.59,-6.399 -22.57,-12.227 l -1.96,8.516 c -0.52,2.129 -1.59,2.832 -4.08,2.832 l -3.88,0 c -1.99,0 -3.77,-1.418 -3.77,-3.555 l 0,-78.457 c 0,-1.965 1.78,-3.554 3.77,-3.554 l 6.73,0 c 1.93,0 3.73,1.589 3.73,3.554 l 0,48.973 c 0,12.277 8.84,21.516 19.34,21.516 5.5,0 8.32,-2.844 8.32,-8.372 l 0,-62.117 c 0,-1.965 1.81,-3.554 3.76,-3.554 l 6.73,0 c 1.96,0 3.74,1.589 3.74,3.554 l 0,48.973 c 0,12.277 9.03,21.516 19.51,21.516 5.5,0 8.17,-2.844 8.17,-8.372 l 0,-62.117 c 0,-1.965 1.79,-3.554 3.72,-3.554 l 6.72,0 c 2,0 3.77,1.589 3.77,3.554"
         inkscape:connector-curvature="0" /><path
         id="path50"
         style="fill:#ed1443;fill-opacity:1;fill-rule:nonzero;stroke:none"
         d="m 1911.76,260.949 0,60.703 c 0,13.321 -8.53,22.188 -21.85,22.188 -9.2,0 -16.84,-3.547 -24.48,-12.402 l -2,8.691 c -0.48,2.129 -1.57,2.832 -4.04,2.832 l -3.91,0 c -1.94,0 -3.71,-1.418 -3.71,-3.555 l 0,-78.457 c 0,-1.965 1.77,-3.554 3.71,-3.554 l 6.75,0 c 1.94,0 3.75,1.589 3.75,3.554 l 0,48.809 c 0,12.246 9.03,22.039 20.56,22.039 7.84,0 11.01,-3.926 11.01,-13.32 l 0,-57.528 c 0,-1.965 1.79,-3.554 3.73,-3.554 l 6.74,0 c 1.97,0 3.74,1.589 3.74,3.554"
         inkscape:connector-curvature="0" /><path
         id="path52"
         style="fill:#ed1443;fill-opacity:1;fill-rule:nonzero;stroke:none"
         d="m 1990.18,263.074 -1.22,5.5 c -0.36,1.789 -1.97,3.371 -4.44,2.649 -3.37,-0.86 -7.65,-1.594 -12.44,-1.594 -13.49,0 -20.4,10.312 -20.4,31.262 0,19.16 7.81,30.722 18.79,30.722 4.99,0 9.26,-1.437 12.08,-2.492 2.67,-1.055 3.91,0.352 4.44,2.121 l 1.79,5.137 c 0.71,1.961 -0.36,3.387 -2.67,4.433 -3.2,1.446 -9.06,3.028 -15.11,3.028 -19.69,0 -34.43,-17.754 -34.43,-42.949 0,-28.586 13.86,-44.399 34.62,-44.399 6.05,0 11.18,0.539 16.15,2.133 2.33,0.711 3.21,2.684 2.84,4.449"
         inkscape:connector-curvature="0" /><path
         id="path54"
         style="fill:#ed1443;fill-opacity:1;fill-rule:nonzero;stroke:none"
         d="m 2070.59,260.949 0,60.703 c 0,13.321 -8.53,22.188 -21.85,22.188 -9.07,0 -16.68,-3.547 -24.33,-12.043 l 0,47.734 c 0,2.141 -1.75,3.555 -3.71,3.555 l -6.4,0 c -1.98,0 -3.73,-1.414 -3.73,-3.555 l 0,-118.582 c 0,-1.965 1.75,-3.554 3.73,-3.554 l 6.4,0 c 1.96,0 3.71,1.589 3.71,3.554 l 0,48.809 c 0,12.246 9.44,22.039 20.96,22.039 7.79,0 11.36,-3.926 11.36,-13.32 l 0,-57.528 c 0,-1.965 1.77,-3.554 3.75,-3.554 l 6.38,0 c 1.95,0 3.73,1.589 3.73,3.554"
         inkscape:connector-curvature="0" /><path
         id="path56"
         style="fill:#ed1443;fill-opacity:1;fill-rule:nonzero;stroke:none"
         d="m 2144.57,308.137 -34.25,0 c 2.12,20.879 11.91,24.199 17.75,24.199 11.74,0 16.15,-12.453 16.5,-24.199 m 14.55,-7.715 c 0,33.34 -15.07,43.406 -31.41,43.406 -18.99,0 -32.12,-16.426 -32.12,-43.035 0,-28.848 13.32,-44.301 37.81,-44.301 10.12,0 15.8,1.789 20.6,3.918 2.14,0.899 3.01,2.664 2.31,4.61 l -1.61,4.433 c -0.7,1.77 -2.12,3.02 -4.61,2.297 -5.32,-1.574 -10.12,-2.844 -16.87,-2.844 -15.98,0 -22.18,9.785 -22.9,27.727 l 45.27,0 c 1.95,0 3.53,1.805 3.53,3.789"
         inkscape:connector-curvature="0" /><path
         id="path58"
         style="fill:#ed1443;fill-opacity:1;fill-rule:nonzero;stroke:none"
         d="m 2245.04,260.949 0,60.703 c 0,13.321 -8.53,22.188 -21.86,22.188 -9.22,0 -16.84,-3.547 -24.49,-12.402 l -1.94,8.691 c -0.53,2.129 -1.63,2.832 -4.09,2.832 l -3.92,0 c -1.94,0 -3.73,-1.418 -3.73,-3.555 l 0,-78.457 c 0,-1.965 1.79,-3.554 3.73,-3.554 l 6.75,0 c 1.97,0 3.73,1.589 3.73,3.554 l 0,48.809 c 0,12.246 9.06,22.039 20.6,22.039 7.79,0 11.01,-3.926 11.01,-13.32 l 0,-57.528 c 0,-1.965 1.78,-3.554 3.72,-3.554 l 6.76,0 c 1.92,0 3.73,1.589 3.73,3.554"
         inkscape:connector-curvature="0" /><path
         id="path60"
         style="fill:#ed1443;fill-opacity:1;fill-rule:nonzero;stroke:none"
         d="m 1782.69,371.523 c 0,1.915 -1.56,3.176 -3.32,3.176 l -7.55,0 c -1.78,0 -3.37,-1.261 -3.37,-3.176 l 0,-7.937 c 0,-1.738 1.59,-3.164 3.37,-3.164 l 7.55,0 c 1.76,0 3.32,1.426 3.32,3.164 l 0,7.937"
         inkscape:connector-curvature="0" /><path
         id="path62"
         style="fill:#ed1443;fill-opacity:1;fill-rule:nonzero;stroke:none"
         d="m 1813.12,371.523 c 0,1.915 -1.59,3.176 -3.33,3.176 l -7.59,0 c -1.74,0 -3.31,-1.261 -3.31,-3.176 l 0,-7.937 c 0,-1.738 1.57,-3.164 3.31,-3.164 l 7.59,0 c 1.74,0 3.33,1.426 3.33,3.164 l 0,7.937"
         inkscape:connector-curvature="0" /><path
         id="path64"
         style="fill:#ed1443;fill-opacity:1;fill-rule:nonzero;stroke:none"
         d="m 1817.69,342.961 -6.76,0 c -1.95,0 -3.72,-1.418 -3.72,-3.555 l 0,-43.144 c 0,-18.801 -8.86,-27.895 -21.46,-27.895 -6.76,0 -10.84,3.742 -10.84,12.473 l 0,58.273 c 0,2.098 -1.79,3.477 -3.68,3.555 -0.05,0 -18.67,-1.152 -18.67,-1.152 -1.7,-0.286 -3,-1.77 -3,-3.567 l 0,-2.898 c 0,-2.442 0.7,-3.508 2.81,-4.055 l 8.35,-1.894 0,-50.059 c 0,-14.91 8.12,-22.551 21.11,-22.551 15.61,0 21.48,8.363 25.92,13.137 l 2.31,-9.219 c 0.51,-1.953 1.76,-3.015 3.56,-3.015 l 4.07,0 c 1.95,0 3.71,1.589 3.71,3.554 l 0,78.457 c 0,2.137 -1.76,3.555 -3.71,3.555"
         inkscape:connector-curvature="0" /><path
         id="path66"
         style="fill:#656263;fill-opacity:1;fill-rule:nonzero;stroke:none"
         d="m 2498.03,134.617 0,37.289 c 0,8.172 -5.24,13.633 -13.4,13.633 -5.57,0 -10.25,-2.187 -14.94,-7.422 l 0,29.317 c 0,1.308 -1.1,2.175 -2.3,2.175 l -3.91,0 c -1.2,0 -2.3,-0.867 -2.3,-2.175 l 0,-72.817 c 0,-1.199 1.1,-2.176 2.3,-2.176 l 3.91,0 c 1.2,0 2.3,0.977 2.3,2.176 l 0,29.985 c 0,7.515 5.78,13.515 12.86,13.515 4.79,0 6.97,-2.394 6.97,-8.176 l 0,-35.324 c 0,-1.199 1.1,-2.176 2.3,-2.176 l 3.91,0 c 1.2,0 2.3,0.977 2.3,2.176 m -50.15,0.871 -0.43,2.293 c -0.21,1.203 -1.19,1.977 -2.28,1.75 -1.1,-0.215 -2.51,-0.437 -3.38,-0.437 -2.73,0 -3.93,1.308 -3.93,4.246 l 0,34.66 6.1,0 c 1.21,0 2.18,1.094 2.18,2.293 l 0,2.402 c 0,1.203 -0.97,2.285 -2.18,2.285 l -6.1,0 0,13.633 c 0,1.739 -1.52,1.629 -2.83,1.192 l -4.03,-1.414 c -0.98,-0.325 -1.64,-1.192 -1.64,-2.395 l 0,-11.016 -5.99,0 c -1.32,0 -2.19,-1.082 -2.19,-2.285 l 0,-2.402 c 0,-1.199 0.87,-2.293 2.19,-2.293 l 5.99,0 0,-35.742 c 0,-6.977 3.48,-10.352 10.89,-10.352 2.3,0 4.48,0.321 6.01,0.762 1.53,0.437 1.85,1.523 1.62,2.82 m -32.68,-0.097 -0.67,2.941 c -0.32,1.426 -1.08,1.738 -2.39,1.426 -1.3,-0.332 -2.5,-0.664 -3.49,-0.664 -2.39,0 -2.72,1.531 -2.72,4.246 l 0,64.094 c 0,1.308 -1.09,2.175 -2.3,2.175 l -3.92,0 c -1.19,0 -2.29,-0.867 -2.29,-2.175 l 0,-66.27 c 0,-5.988 3.06,-9.258 9.92,-9.258 2.5,0 4.59,0.535 6.44,1.199 1.2,0.43 1.63,1.086 1.42,2.286 m -46.23,14.386 c 0,-4.25 -4.79,-10.898 -12.2,-10.898 -4.58,0 -7.41,2.613 -7.41,8.277 0,8.84 5.23,10.578 12.32,10.91 l 7.29,0.313 z m 9.82,-15.16 -0.66,3.274 c -0.65,3.273 -0.65,6.222 -0.65,9.054 l 0,19.285 c 0,8.719 -1.52,19.309 -17.99,19.309 -4.69,0 -9.69,-1.203 -12.65,-1.973 -1.29,-0.324 -1.73,-1.3 -1.52,-2.609 l 0.66,-3.496 c 0.21,-1.309 1.41,-1.961 2.72,-1.641 2.95,0.774 5.89,1.868 10.35,1.868 8.19,0 9.92,-3.379 9.92,-10.254 l 0,-2.832 -12.74,-0.774 c -7.53,-0.43 -15.81,-4.355 -15.81,-16.672 0,-9.695 5.56,-15.25 13.95,-15.25 5.77,0 11.45,2.176 14.93,7.949 l 0.88,-5.449 c 0.22,-1.418 1.2,-1.965 2.4,-1.965 l 4.46,0 c 1.2,0 1.96,0.871 1.75,2.176 m -58.63,28.899 -21.05,0 c 1.32,12.968 7.31,15.039 10.91,15.039 7.19,0 9.91,-7.743 10.14,-15.039 m 8.92,-4.696 c 0,20.606 -9.26,26.719 -19.28,26.719 -11.67,0 -19.73,-10.039 -19.73,-26.496 0,-17.656 8.17,-27.137 23.21,-27.137 6.21,0 9.71,1.082 12.65,2.403 1.31,0.535 1.86,1.629 1.41,2.82 l -0.97,2.726 c -0.44,1.094 -1.31,1.856 -2.83,1.415 -3.28,-0.977 -6.23,-1.739 -10.36,-1.739 -9.81,0 -13.63,5.996 -14.07,17 l 27.8,0 c 1.2,0 2.17,1.098 2.17,2.289 m -57.87,-24.203 0,68.676 c 0,1.309 -1.08,2.176 -2.28,2.176 l -4.14,0 c -1.2,0 -2.29,-0.867 -2.29,-2.176 l 0,-28.234 -27.59,0 0,28.234 c 0,1.309 -1.08,2.176 -2.28,2.176 l -4.14,0 c -1.2,0 -2.3,-0.867 -2.3,-2.176 l 0,-68.676 c 0,-1.199 1.1,-2.176 2.3,-2.176 l 4.14,0 c 1.2,0 2.28,0.977 2.28,2.176 l 0,32.602 27.59,0 0,-32.602 c 0,-1.199 1.09,-2.176 2.29,-2.176 l 4.14,0 c 1.2,0 2.28,0.977 2.28,2.176 m -85.34,0.774 -0.66,2.941 c -0.33,1.426 -1.09,1.738 -2.4,1.426 -1.31,-0.332 -2.51,-0.664 -3.48,-0.664 -2.4,0 -2.73,1.531 -2.73,4.246 l 0,64.094 c 0,1.308 -1.08,2.175 -2.28,2.175 l -3.94,0 c -1.19,0 -2.29,-0.867 -2.29,-2.175 l 0,-66.27 c 0,-5.988 3.06,-9.258 9.93,-9.258 2.51,0 4.58,0.535 6.43,1.199 1.19,0.43 1.64,1.086 1.42,2.286 m -46.21,14.386 c 0,-4.25 -4.81,-10.898 -12.22,-10.898 -4.58,0 -7.4,2.613 -7.4,8.277 0,8.84 5.22,10.578 12.3,10.91 l 7.32,0.313 z m 9.8,-15.16 -0.65,3.274 c -0.65,3.273 -0.65,6.222 -0.65,9.054 l 0,19.285 c 0,8.719 -1.54,19.309 -17.99,19.309 -4.68,0 -9.7,-1.203 -12.64,-1.973 -1.32,-0.324 -1.75,-1.3 -1.53,-2.609 l 0.66,-3.496 c 0.22,-1.309 1.41,-1.961 2.72,-1.641 2.94,0.774 5.88,1.868 10.36,1.868 8.17,0 9.92,-3.379 9.92,-10.254 l 0,-2.832 -12.77,-0.774 c -7.51,-0.43 -15.8,-4.355 -15.8,-16.672 0,-9.695 5.57,-15.25 13.96,-15.25 5.78,0 11.45,2.176 14.93,7.949 l 0.88,-5.449 c 0.2,-1.418 1.18,-1.965 2.38,-1.965 l 4.47,0 c 1.21,0 1.97,0.871 1.75,2.176 m -47.08,0.871 -0.45,2.293 c -0.21,1.203 -1.19,1.977 -2.28,1.75 -1.1,-0.215 -2.5,-0.437 -3.38,-0.437 -2.72,0 -3.93,1.308 -3.93,4.246 l 0,34.66 6.12,0 c 1.19,0 2.17,1.094 2.17,2.293 l 0,2.402 c 0,1.203 -0.98,2.285 -2.17,2.285 l -6.12,0 0,13.633 c 0,1.739 -1.52,1.629 -2.83,1.192 l -4.04,-1.414 c -0.98,-0.325 -1.62,-1.192 -1.62,-2.395 l 0,-11.016 -6,0 c -1.31,0 -2.19,-1.082 -2.19,-2.285 l 0,-2.402 c 0,-1.199 0.88,-2.293 2.19,-2.293 l 6,0 0,-35.742 c 0,-6.977 3.49,-10.352 10.9,-10.352 2.28,0 4.47,0.321 5.99,0.762 1.53,0.437 1.86,1.523 1.64,2.82 m -40.11,-0.871 0,37.289 c 0,8.172 -5.24,13.633 -13.41,13.633 -5.68,0 -10.35,-2.187 -15.05,-7.637 l -1.19,5.34 c -0.33,1.301 -0.98,1.738 -2.51,1.738 l -2.4,0 c -1.2,0 -2.28,-0.867 -2.28,-2.175 l 0,-48.188 c 0,-1.199 1.08,-2.176 2.28,-2.176 l 4.15,0 c 1.19,0 2.28,0.977 2.28,2.176 l 0,29.985 c 0,7.515 5.57,13.515 12.65,13.515 4.79,0 6.76,-2.394 6.76,-8.176 l 0,-35.324 c 0,-1.199 1.08,-2.176 2.29,-2.176 l 4.14,0 c 1.19,0 2.29,0.977 2.29,2.176 m -62.78,28.899 -21.04,0 c 1.31,12.968 7.3,15.039 10.91,15.039 7.18,0 9.91,-7.743 10.13,-15.039 m 8.93,-4.696 c 0,20.606 -9.26,26.719 -19.29,26.719 -11.66,0 -19.73,-10.039 -19.73,-26.496 0,-17.656 8.18,-27.137 23.23,-27.137 6.21,0 9.68,1.082 12.62,2.403 1.31,0.535 1.86,1.629 1.43,2.82 l -0.98,2.726 c -0.45,1.094 -1.32,1.856 -2.83,1.415 -3.28,-0.977 -6.22,-1.739 -10.36,-1.739 -9.81,0 -13.62,5.996 -14.06,17 l 27.78,0 c 1.21,0 2.19,1.098 2.19,2.289 m -55.48,-24.203 0,39.692 c 0,9.257 -7.08,11.23 -11.88,11.23 -5.66,0 -10.35,-2.734 -14.82,-8.078 -0.98,5.012 -5.45,8.078 -11.23,8.078 -5.77,0 -10.79,-3.937 -13.84,-7.539 l -1.2,5.242 c -0.33,1.301 -0.98,1.738 -2.51,1.738 l -2.39,0 c -1.2,0 -2.29,-0.867 -2.29,-2.175 l 0,-48.188 c 0,-1.199 1.09,-2.176 2.29,-2.176 l 4.14,0 c 1.2,0 2.29,0.977 2.29,2.176 l 0,30.102 c 0,7.519 5.45,13.183 11.88,13.183 3.38,0 5.12,-1.75 5.12,-5.129 l 0,-38.156 c 0,-1.199 1.09,-2.176 2.29,-2.176 l 4.14,0 c 1.2,0 2.29,0.977 2.29,2.176 l 0,30.102 c 0,7.519 5.56,13.183 11.99,13.183 3.38,0 5.01,-1.75 5.01,-5.129 l 0,-38.156 c 0,-1.199 1.09,-2.176 2.29,-2.176 l 4.15,0 c 1.19,0 2.28,0.977 2.28,2.176 m -80.65,0 0,37.289 c 0,8.172 -5.24,13.633 -13.41,13.633 -5.67,0 -10.36,-2.187 -15.04,-7.637 l -1.2,5.34 c -0.33,1.301 -0.98,1.738 -2.51,1.738 l -2.4,0 c -1.2,0 -2.29,-0.867 -2.29,-2.175 l 0,-48.188 c 0,-1.199 1.09,-2.176 2.29,-2.176 l 4.14,0 c 1.2,0 2.29,0.977 2.29,2.176 l 0,29.985 c 0,7.515 5.56,13.515 12.65,13.515 4.79,0 6.76,-2.394 6.76,-8.176 l 0,-35.324 c 0,-1.199 1.09,-2.176 2.29,-2.176 l 4.14,0 c 1.2,0 2.29,0.977 2.29,2.176 m -62.68,24.094 c 0,-13.406 -4.14,-19.617 -11.66,-19.617 -7.52,0 -11.66,6.211 -11.66,19.617 0,13.086 4.14,19.512 11.66,19.512 7.52,0 11.66,-6.426 11.66,-19.512 m 9.27,0 c 0,16.68 -8.07,26.828 -20.71,26.828 -12.65,0 -20.93,-10.148 -20.93,-26.828 0,-16.777 8.28,-26.805 20.93,-26.805 12.64,0 20.71,10.028 20.71,26.805 m -48.5,23 c 0.54,2.187 -2.19,3.828 -5.67,3.828 -5.02,0 -9.16,-2.961 -12.21,-8.078 l -1.53,5.891 c -0.32,1.093 -1.2,1.628 -2.29,1.628 l -2.5,0 c -1.2,0 -2.29,-0.867 -2.29,-2.175 l 0,-48.188 c 0,-1.199 1.09,-2.176 2.29,-2.176 l 4.14,0 c 1.2,0 2.29,0.977 2.29,2.176 l 0,28.457 c 0,9.477 4.25,13.41 7.41,13.41 2.07,0 4.58,-0.761 6.1,-1.203 1.86,-0.543 2.84,0.442 3.16,1.965 z m -47.64,-47.094 0,48.188 c 0,1.199 -1.09,2.175 -2.29,2.175 l -3.92,0 c -1.2,0 -2.29,-0.976 -2.29,-2.175 l 0,-48.188 c 0,-1.199 1.09,-2.176 2.29,-2.176 l 3.92,0 c 1.2,0 2.29,0.977 2.29,2.176 m 2.07,69.223 c 0,3.496 -2.83,6.328 -6.32,6.328 -3.49,0 -6.32,-2.832 -6.32,-6.328 0,-3.488 2.83,-6.32 6.32,-6.32 3.49,0 6.32,2.832 6.32,6.32 m -26.05,-21.367 c 0.44,1.64 -0.54,2.507 -1.74,2.507 l -4.91,0 c -1.3,0 -2.28,-0.644 -2.61,-2.07 l -8.94,-36.512 c -0.65,-2.5 -1.2,-6.867 -1.53,-9.484 -0.21,2.727 -0.76,6.984 -1.41,9.484 l -9.38,36.407 c -0.32,1.414 -1.41,2.175 -2.72,2.175 l -4.91,0 c -1.2,0 -2.18,-0.976 -1.63,-2.832 l 13.95,-47.742 c 0.44,-1.523 0.98,-1.965 2.29,-1.965 l 6.87,0 c 1.41,0 2.18,0.774 2.5,1.965 z m -54.71,-47.856 0,37.289 c 0,8.172 -5.23,13.633 -13.41,13.633 -5.67,0 -10.35,-2.187 -15.04,-7.637 l -1.2,5.34 c -0.33,1.301 -0.98,1.738 -2.51,1.738 l -2.4,0 c -1.19,0 -2.28,-0.867 -2.28,-2.175 l 0,-48.188 c 0,-1.199 1.09,-2.176 2.28,-2.176 l 4.15,0 c 1.2,0 2.29,0.977 2.29,2.176 l 0,29.985 c 0,7.515 5.55,13.515 12.64,13.515 4.8,0 6.76,-2.394 6.76,-8.176 l 0,-35.324 c 0,-1.199 1.09,-2.176 2.29,-2.176 l 4.14,0 c 1.2,0 2.29,0.977 2.29,2.176 m -54.83,0 0,3.938 c 0,1.3 -1.09,2.285 -2.4,2.285 l -27.36,0 0,26.262 23.98,0 c 1.31,0 2.29,0.996 2.29,2.402 l 0,3.379 c 0,1.199 -0.98,2.176 -2.29,2.176 l -23.98,0 0,22.246 26.6,0 c 1.42,0 2.29,1.086 2.29,2.402 l 0,3.586 c 0,1.309 -1.09,2.176 -2.29,2.176 l -33.14,0 c -1.19,0 -2.28,-0.867 -2.28,-2.176 l 0,-68.676 c 0,-1.199 1.09,-2.176 2.28,-2.176 l 34.01,0 c 1.2,0 2.29,0.977 2.29,2.176 m -77.93,47.094 c 0.54,2.187 -2.18,3.828 -5.67,3.828 -5.01,0 -9.16,-2.961 -12.21,-8.078 l -1.52,5.891 c -0.33,1.093 -1.2,1.628 -2.29,1.628 l -2.51,0 c -1.2,0 -2.29,-0.867 -2.29,-2.175 l 0,-48.188 c 0,-1.199 1.09,-2.176 2.29,-2.176 l 4.14,0 c 1.2,0 2.29,0.977 2.29,2.176 l 0,28.457 c 0,9.477 4.25,13.41 7.41,13.41 2.07,0 4.58,-0.761 6.11,-1.203 1.85,-0.543 2.83,0.442 3.16,1.965 z m -52.32,-23 c 0,-13.406 -4.14,-19.617 -11.66,-19.617 -7.52,0 -11.67,6.211 -11.67,19.617 0,13.086 4.15,19.512 11.67,19.512 7.52,0 11.66,-6.426 11.66,-19.512 m 9.27,0 c 0,16.68 -8.07,26.828 -20.71,26.828 -12.65,0 -20.93,-10.148 -20.93,-26.828 0,-16.777 8.28,-26.805 20.93,-26.805 12.64,0 20.71,10.028 20.71,26.805 m -48.4,46.758 c 0.33,1.203 0,2.402 -1.2,2.949 -1.74,0.762 -5.56,1.75 -7.3,1.75 -6.87,0 -11.88,-3.379 -11.88,-12.434 l 0,-12.754 -6,0 c -1.3,0 -2.18,-1.082 -2.18,-2.285 l 0,-2.402 c 0,-1.199 0.88,-2.293 2.18,-2.293 l 6,0 0,-43.383 c 0,-1.199 1.2,-2.176 2.29,-2.176 l 3.92,0 c 1.2,0 2.29,0.977 2.29,2.176 l 0,43.383 8.39,0 c 1.2,0 2.18,1.094 2.18,2.293 l 0,2.402 c 0,1.203 -0.98,2.285 -2.18,2.285 l -8.39,0 0,12.434 c 0,3.914 1.53,5.117 3.82,5.117 1.41,0 3.59,-0.871 4.68,-1.203 1.2,-0.32 2.18,0.117 2.51,1.203 z m -58.64,-23.758 c 0.55,2.187 -2.18,3.828 -5.67,3.828 -5.01,0 -9.15,-2.961 -12.21,-8.078 l -1.52,5.891 c -0.33,1.093 -1.2,1.628 -2.29,1.628 l -2.51,0 c -1.2,0 -2.29,-0.867 -2.29,-2.175 l 0,-48.188 c 0,-1.199 1.09,-2.176 2.29,-2.176 l 4.14,0 c 1.2,0 2.29,0.977 2.29,2.176 l 0,28.457 c 0,9.477 4.25,13.41 7.42,13.41 2.07,0 4.57,-0.761 6.1,-1.203 1.85,-0.543 2.83,0.442 3.16,1.965 z m -52.43,-18.195 -21.03,0 c 1.3,12.968 7.3,15.039 10.9,15.039 7.19,0 9.91,-7.743 10.13,-15.039 m 8.94,-4.696 c 0,20.606 -9.26,26.719 -19.29,26.719 -11.66,0 -19.73,-10.039 -19.73,-26.496 0,-17.656 8.17,-27.137 23.22,-27.137 6.21,0 9.7,1.082 12.64,2.403 1.31,0.535 1.85,1.629 1.42,2.82 l -0.98,2.726 c -0.44,1.094 -1.31,1.856 -2.84,1.415 -3.27,-0.977 -6.21,-1.739 -10.35,-1.739 -9.81,0 -13.63,5.996 -14.06,17 l 27.79,0 c 1.2,0 2.18,1.098 2.18,2.289 m -47.41,-23.332 -0.44,2.293 c -0.22,1.203 -1.2,1.977 -2.29,1.75 -1.09,-0.215 -2.5,-0.437 -3.38,-0.437 -2.72,0 -3.92,1.308 -3.92,4.246 l 0,34.66 6.1,0 c 1.2,0 2.18,1.094 2.18,2.293 l 0,2.402 c 0,1.203 -0.98,2.285 -2.18,2.285 l -6.1,0 0,13.633 c 0,1.739 -1.53,1.629 -2.83,1.192 l -4.04,-1.414 c -0.98,-0.325 -1.63,-1.192 -1.63,-2.395 l 0,-11.016 -6,0 c -1.3,0 -2.18,-1.082 -2.18,-2.285 l 0,-2.402 c 0,-1.199 0.88,-2.293 2.18,-2.293 l 6,0 0,-35.742 c 0,-6.977 3.49,-10.352 10.9,-10.352 2.29,0 4.47,0.321 5.99,0.762 1.53,0.437 1.86,1.523 1.64,2.82 m -40.11,-0.871 0,37.289 c 0,8.172 -5.23,13.633 -13.41,13.633 -5.67,0 -10.35,-2.187 -15.04,-7.637 l -1.2,5.34 c -0.33,1.301 -0.98,1.738 -2.51,1.738 l -2.39,0 c -1.2,0 -2.29,-0.867 -2.29,-2.175 l 0,-48.188 c 0,-1.199 1.09,-2.176 2.29,-2.176 l 4.14,0 c 1.2,0 2.29,0.977 2.29,2.176 l 0,29.985 c 0,7.515 5.56,13.515 12.64,13.515 4.8,0 6.76,-2.394 6.76,-8.176 l 0,-35.324 c 0,-1.199 1.09,-2.176 2.29,-2.176 l 4.14,0 c 1.2,0 2.29,0.977 2.29,2.176 m -62.78,28.899 -21.04,0 c 1.31,12.968 7.3,15.039 10.9,15.039 7.19,0 9.92,-7.743 10.14,-15.039 m 8.93,-4.696 c 0,20.606 -9.26,26.719 -19.29,26.719 -11.66,0 -19.73,-10.039 -19.73,-26.496 0,-17.656 8.18,-27.137 23.22,-27.137 6.21,0 9.7,1.082 12.64,2.403 1.31,0.535 1.86,1.629 1.42,2.82 l -0.98,2.726 c -0.44,1.094 -1.31,1.856 -2.84,1.415 -3.27,-0.977 -6.21,-1.739 -10.35,-1.739 -9.81,0 -13.63,5.996 -14.06,17 l 27.79,0 c 1.2,0 2.18,1.098 2.18,2.289 m -49.14,-21.359 -1.96,4.141 c -0.44,0.871 -1.42,1.425 -2.73,0.761 -1.85,-0.871 -5.99,-2.07 -8.94,-2.07 -10.79,0 -18.74,8.613 -18.74,29.102 0,19.953 6.75,28.449 18.96,28.449 3.38,0 5.89,-0.871 8.39,-2.071 1.31,-0.644 2.4,-0.214 2.95,0.868 l 1.74,3.379 c 0.66,1.203 0.22,2.511 -0.87,3.164 -3.82,2.285 -8.28,2.843 -12.54,2.843 -16.67,0 -28.23,-13.527 -28.23,-36.523 0,-23.977 10.14,-37.598 27.58,-37.598 6.65,0 10.57,1.512 13.41,2.938 0.87,0.437 1.52,1.418 0.98,2.617 m -84.8,-2.844 0,37.289 c 0,8.172 -5.23,13.633 -13.41,13.633 -5.56,0 -10.24,-2.187 -14.93,-7.422 l 0,29.317 c 0,1.308 -1.09,2.175 -2.29,2.175 l -3.92,0 c -1.2,0 -2.29,-0.867 -2.29,-2.175 l 0,-72.817 c 0,-1.199 1.09,-2.176 2.29,-2.176 l 3.92,0 c 1.2,0 2.29,0.977 2.29,2.176 l 0,29.985 c 0,7.515 5.78,13.515 12.86,13.515 4.8,0 6.98,-2.394 6.98,-8.176 l 0,-35.324 c 0,-1.199 1.09,-2.176 2.29,-2.176 l 3.92,0 c 1.2,0 2.29,0.977 2.29,2.176 m -50.47,1.321 -0.758,3.378 c -0.219,1.086 -1.203,2.071 -2.719,1.633 -2.07,-0.547 -4.695,-0.988 -7.633,-0.988 -8.289,0 -12.539,6.328 -12.539,19.191 0,11.766 4.801,18.848 11.559,18.848 3.051,0 5.664,-0.871 7.41,-1.516 1.633,-0.664 2.398,0.215 2.719,1.309 l 1.09,3.164 c 0.441,1.191 -0.219,2.07 -1.629,2.715 -1.961,0.871 -5.559,1.867 -9.27,1.867 -12.098,0 -21.14,-10.91 -21.14,-26.387 0,-17.55 8.5,-27.246 21.25,-27.246 3.71,0 6.867,0.321 9.921,1.309 1.422,0.43 1.957,1.629 1.739,2.723 m -40.871,45.773 c 0.554,2.187 -2.176,3.828 -5.668,3.828 -5.008,0 -9.149,-2.961 -12.211,-8.078 l -1.52,5.891 c -0.332,1.093 -1.199,1.628 -2.289,1.628 l -2.512,0 c -1.199,0 -2.289,-0.867 -2.289,-2.175 l 0,-48.188 c 0,-1.199 1.09,-2.176 2.289,-2.176 l 4.141,0 c 1.203,0 2.293,0.977 2.293,2.176 l 0,28.457 c 0,9.477 4.246,13.41 7.422,13.41 2.062,0 4.562,-0.761 6.097,-1.203 1.852,-0.543 2.825,0.442 3.157,1.965 z M 895.91,149.777 c 0,-4.25 -4.801,-10.898 -12.207,-10.898 -4.582,0 -7.414,2.613 -7.414,8.277 0,8.84 5.231,10.578 12.309,10.91 l 7.312,0.313 z m 9.813,-15.16 -0.664,3.274 c -0.649,3.273 -0.649,6.222 -0.649,9.054 l 0,19.285 c 0,8.719 -1.527,19.309 -17.988,19.309 -4.684,0 -9.703,-1.203 -12.641,-1.973 -1.312,-0.324 -1.738,-1.3 -1.531,-2.609 l 0.66,-3.496 c 0.219,-1.309 1.422,-1.961 2.719,-1.641 2.949,0.774 5.891,1.868 10.363,1.868 8.168,0 9.918,-3.379 9.918,-10.254 l 0,-2.832 -12.75,-0.774 c -7.531,-0.43 -15.812,-4.355 -15.812,-16.672 0,-9.695 5.562,-15.25 13.953,-15.25 5.781,0 11.449,2.176 14.929,7.949 l 0.879,-5.449 c 0.211,-1.418 1.2,-1.965 2.395,-1.965 l 4.465,0 c 1.203,0 1.972,0.871 1.754,2.176 m -58.641,28.899 -21.031,0 c 1.297,12.968 7.297,15.039 10.898,15.039 7.192,0 9.922,-7.743 10.133,-15.039 m 8.938,-4.696 c 0,20.606 -9.258,26.719 -19.293,26.719 -11.657,0 -19.723,-10.039 -19.723,-26.496 0,-17.656 8.168,-27.137 23.215,-27.137 6.211,0 9.703,1.082 12.644,2.403 1.309,0.535 1.848,1.629 1.418,2.82 l -0.98,2.726 c -0.438,1.094 -1.309,1.856 -2.84,1.415 -3.27,-0.977 -6.207,-1.739 -10.348,-1.739 -9.812,0 -13.633,5.996 -14.062,17 l 27.793,0 c 1.195,0 2.176,1.098 2.176,2.289 m -52.192,-12.207 c 0,15.918 -22.57,16.239 -22.57,25.399 0,3.926 2.844,6.437 7.742,6.437 3.27,0 6.648,-1.094 8.832,-1.965 1.195,-0.437 2.289,-0.222 2.73,1.086 l 0.977,2.723 c 0.434,1.309 0.109,2.402 -0.977,2.949 -2.843,1.301 -6.113,2.297 -11.23,2.297 -10.25,0 -16.68,-5.781 -16.68,-14.172 0,-14.617 22.348,-14.726 22.348,-24.648 0,-4.461 -2.508,-7.078 -7.957,-7.078 -4.363,0 -8.609,1.199 -12.102,2.937 -1.199,0.547 -2.402,0.117 -2.832,-1.414 l -0.976,-3.273 c -0.445,-1.309 -0.113,-2.286 1.195,-2.942 3.922,-1.961 9.809,-3.043 14.492,-3.043 10.469,0 17.008,6.094 17.008,14.707 m -53.066,16.903 -21.032,0 c 1.301,12.968 7.301,15.039 10.899,15.039 7.195,0 9.914,-7.743 10.133,-15.039 m 8.941,-4.696 c 0,20.606 -9.265,26.719 -19.293,26.719 -11.668,0 -19.73,-10.039 -19.73,-26.496 0,-17.656 8.172,-27.137 23.222,-27.137 6.211,0 9.696,1.082 12.637,2.403 1.313,0.535 1.848,1.629 1.422,2.82 l -0.981,2.726 c -0.441,1.094 -1.312,1.856 -2.839,1.415 -3.27,-0.977 -6.211,-1.739 -10.352,-1.739 -9.809,0 -13.629,5.996 -14.059,17 l 27.79,0 c 1.199,0 2.183,1.098 2.183,2.289 m -62.234,27.586 c 0,-8.074 -5.34,-12.761 -13.949,-12.761 l -10.582,0 0,23.875 11.785,0 c 8.386,0 12.746,-4.688 12.746,-11.114 m 13.523,-51.347 c -4.359,12.218 -7.633,20.5 -8.625,22.57 -2.387,5.113 -6.746,10.777 -13.285,11.875 l 0.977,0.105 c 11.879,1.309 16.461,10.149 16.461,18.106 0,6.855 -3.821,17.754 -21.692,17.754 l -18.426,0 c -1.191,0 -2.281,-0.867 -2.281,-2.176 l 0,-68.676 c 0,-1.199 1.09,-2.176 2.281,-2.176 l 4.258,0 c 1.192,0 2.278,0.977 2.278,2.176 l 0,31.184 5.781,0 c 8.074,0 11.453,-4.793 13.953,-9.27 3.16,-5.554 5.238,-13.297 8.289,-22.781 0.32,-0.977 1.09,-1.309 1.961,-1.309 l 6.543,0 c 1.625,0 2.062,1.094 1.527,2.618 m -94.609,-0.442 0,37.289 c 0,8.172 -5.242,13.633 -13.414,13.633 -5.668,0 -10.356,-2.187 -15.039,-7.637 l -1.203,5.34 c -0.325,1.301 -0.973,1.738 -2.508,1.738 l -2.399,0 c -1.199,0 -2.289,-0.867 -2.289,-2.175 l 0,-48.188 c 0,-1.199 1.09,-2.176 2.289,-2.176 l 4.141,0 c 1.199,0 2.293,0.977 2.293,2.176 l 0,29.985 c 0,7.515 5.555,13.515 12.644,13.515 4.79,0 6.762,-2.394 6.762,-8.176 l 0,-35.324 c 0,-1.199 1.09,-2.176 2.281,-2.176 l 4.149,0 c 1.199,0 2.293,0.977 2.293,2.176 m -65.512,15.16 c 0,-4.25 -4.801,-10.898 -12.207,-10.898 -4.582,0 -7.414,2.613 -7.414,8.277 0,8.84 5.23,10.578 12.309,10.91 l 7.312,0.313 z m 9.809,-15.16 -0.66,3.274 c -0.649,3.273 -0.649,6.222 -0.649,9.054 l 0,19.285 c 0,8.719 -1.531,19.309 -17.988,19.309 -4.684,0 -9.703,-1.203 -12.641,-1.973 -1.312,-0.324 -1.738,-1.3 -1.531,-2.609 l 0.66,-3.496 c 0.219,-1.309 1.422,-1.961 2.719,-1.641 2.949,0.774 5.89,1.868 10.363,1.868 8.168,0 9.918,-3.379 9.918,-10.254 l 0,-2.832 -12.762,-0.774 c -7.519,-0.43 -15.8,-4.355 -15.8,-16.672 0,-9.695 5.562,-15.25 13.949,-15.25 5.785,0 11.453,2.176 14.933,7.949 l 0.879,-5.449 c 0.211,-1.418 1.2,-1.965 2.395,-1.965 l 4.465,0 c 1.203,0 1.968,0.871 1.75,2.176 m -54.071,0 0,39.692 c 0,9.257 -7.078,11.23 -11.879,11.23 -5.656,0 -10.351,-2.734 -14.816,-8.078 -0.984,5.012 -5.449,8.078 -11.234,8.078 -5.77,0 -10.789,-3.937 -13.84,-7.539 l -1.199,5.242 c -0.332,1.301 -0.981,1.738 -2.508,1.738 l -2.391,0 c -1.203,0 -2.293,-0.867 -2.293,-2.175 l 0,-48.188 c 0,-1.199 1.09,-2.176 2.293,-2.176 l 4.141,0 c 1.199,0 2.289,0.977 2.289,2.176 l 0,30.102 c 0,7.519 5.449,13.183 11.879,13.183 3.379,0 5.121,-1.75 5.121,-5.129 l 0,-38.156 c 0,-1.199 1.09,-2.176 2.293,-2.176 l 4.133,0 c 1.203,0 2.289,0.977 2.289,2.176 l 0,30.102 c 0,7.519 5.562,13.183 11.996,13.183 3.375,0 5.008,-1.75 5.008,-5.129 l 0,-38.156 c 0,-1.199 1.089,-2.176 2.289,-2.176 l 4.152,0 c 1.191,0 2.277,0.977 2.277,2.176 m -72.257,47.094 c 0.539,2.187 -2.18,3.828 -5.672,3.828 -5.008,0 -9.16,-2.961 -12.211,-8.078 l -1.516,5.891 c -0.332,1.093 -1.203,1.628 -2.293,1.628 l -2.508,0 c -1.203,0 -2.293,-0.867 -2.293,-2.175 l 0,-48.188 c 0,-1.199 1.09,-2.176 2.293,-2.176 l 4.141,0 c 1.195,0 2.289,0.977 2.289,2.176 l 0,28.457 c 0,9.477 4.25,13.41 7.406,13.41 2.071,0 4.582,-0.761 6.114,-1.203 1.847,-0.543 2.828,0.442 3.16,1.965 z m -52.434,-18.195 -21.039,0 c 1.312,12.968 7.309,15.039 10.902,15.039 7.199,0 9.918,-7.743 10.137,-15.039 m 8.941,-4.696 c 0,20.606 -9.269,26.719 -19.285,26.719 -11.672,0 -19.734,-10.039 -19.734,-26.496 0,-17.656 8.168,-27.137 23.211,-27.137 6.219,0 9.711,1.082 12.648,2.403 1.309,0.535 1.852,1.629 1.422,2.82 l -0.992,2.726 c -0.43,1.094 -1.297,1.856 -2.828,1.415 -3.27,-0.977 -6.211,-1.739 -10.348,-1.739 -9.82,0 -13.637,5.996 -14.074,17 l 27.801,0 c 1.203,0 2.179,1.098 2.179,2.289 m -55.808,-20.597 0,33.894 c 0,1.321 -1.09,2.192 -2.293,2.192 l -17.977,0 c -1.308,0 -2.179,-1.094 -2.179,-2.297 l 0,-3.914 c 0,-1.203 0.871,-2.297 2.179,-2.297 l 11.66,0 0,-24.531 c -2.832,-0.868 -5.879,-1.309 -8.941,-1.309 -12.863,0 -20.602,8.078 -20.602,28.672 0,19.726 6.114,28.996 19.735,28.996 5.121,0 9.379,-1.418 13.078,-3.379 1.09,-0.551 2.18,0.215 2.512,0.984 l 1.851,4.036 c 0.438,1.082 0.219,2.285 -1.097,2.937 -4.465,2.285 -10.344,3.82 -15.907,3.82 -19.187,0 -29.648,-13.527 -29.648,-36.738 0,-25.078 10.031,-37.383 28.226,-37.383 5.891,0 12.434,0.977 16.461,2.5 1.965,0.77 2.942,1.641 2.942,3.817"
         inkscape:connector-curvature="0" /></g></g><rect
     style="fill:#0000ff;fill-opacity:0;stroke:#000000;stroke-opacity:0"
     id="rect4282"
     width="294.87204"
     height="33.66238"
     x="0.5"
     y="0.5" /></svg>